<svg width="35" height="35" viewBox="0 0 35 35" fill="none" xmlns="http://www.w3.org/2000/svg">
<path fill-rule="evenodd" clip-rule="evenodd" d="M0 17.5C0 7.83502 7.83502 0 17.5 0C27.165 0 35 7.83502 35 17.5C35 27.165 27.165 35 17.5 35C7.83502 35 0 27.165 0 17.5Z" fill="#FFCFCF"/>
<path fill-rule="evenodd" clip-rule="evenodd" d="M24.0645 11.98H10.6548C10.2932 11.98 9.99999 12.2731 9.99999 12.6346C9.99999 12.9961 10.2932 13.2892 10.6548 13.2892H24.0645C24.4261 13.2892 24.7192 12.9961 24.7192 12.6346C24.7192 12.2731 24.4261 11.98 24.0645 11.98Z" fill="#FB3636"/>
<path fill-rule="evenodd" clip-rule="evenodd" d="M22.5745 11.98C22.2128 11.98 21.9197 12.2732 21.9197 12.6348V23.0646C21.9197 23.5251 21.545 23.8998 21.0845 23.8998H13.6347C13.1742 23.8998 12.7995 23.5251 12.7995 23.0646V12.6348C12.7995 12.2732 12.5064 11.98 12.1448 11.98C11.7832 11.98 11.49 12.2732 11.49 12.6348V23.0646C11.49 24.2472 12.4521 25.2093 13.6347 25.2093H21.0846C22.2672 25.2093 23.2293 24.2472 23.2293 23.0646V12.6348C23.2293 12.2732 22.9361 11.98 22.5745 11.98Z" fill="#FB3636"/>
<path fill-rule="evenodd" clip-rule="evenodd" d="M18.8516 9H15.8676C14.6834 9 13.72 9.96204 13.72 11.1446V12.6345C13.72 12.9961 14.0135 13.2892 14.3756 13.2892C14.7377 13.2892 15.0313 12.9961 15.0313 12.6345V11.1446C15.0313 10.6841 15.4065 10.3095 15.8676 10.3095H18.8515C19.3127 10.3095 19.6879 10.6841 19.6879 11.1446V12.6345C19.6879 12.9961 19.9814 13.2892 20.3435 13.2892C20.7056 13.2892 20.9992 12.9961 20.9992 12.6345V11.1446C20.9992 9.96207 20.0358 9 18.8516 9H18.8516Z" fill="#FB3636"/>
<path fill-rule="evenodd" clip-rule="evenodd" d="M15.8745 15.7C15.513 15.7 15.22 15.9937 15.22 16.3559V20.8334C15.22 21.1956 15.513 21.4892 15.8745 21.4892C16.236 21.4892 16.5291 21.1956 16.5291 20.8334V16.3559C16.5292 15.9937 16.2361 15.7 15.8745 15.7Z" fill="#FB3636"/>
<path fill-rule="evenodd" clip-rule="evenodd" d="M18.8497 15.7C18.4854 15.7 18.1901 15.9937 18.1901 16.3559V20.8334C18.1901 21.1956 18.4854 21.4892 18.8497 21.4892C19.214 21.4892 19.5093 21.1956 19.5093 20.8334V16.3559C19.5093 15.9937 19.214 15.7 18.8497 15.7Z" fill="#FB3636"/>
</svg>
