<svg width="35" height="35" viewBox="0 0 35 35" fill="none" xmlns="http://www.w3.org/2000/svg">
<path fill-rule="evenodd" clip-rule="evenodd" d="M17.5 0C27.165 0 35 7.83502 35 17.5C35 27.165 27.165 35 17.5 35C7.83502 35 0 27.165 0 17.5C0 7.83502 7.83502 0 17.5 0Z" fill="#C4CEF5"/>
<path fill-rule="evenodd" clip-rule="evenodd" d="M14.6676 20.5203H14.6675C14.3228 20.5203 13.9813 20.4303 13.6799 20.2601L12.1667 19.3996C11.2097 18.8576 10.8746 17.6438 11.4197 16.6938L14.7533 10.8581C15.1086 10.2402 15.775 9.85645 16.4924 9.85645C16.8371 9.85645 17.1785 9.94644 17.4797 10.1167L18.9929 10.9772C19.9497 11.5191 20.2848 12.7329 19.74 13.683L16.4063 19.5187C16.051 20.1366 15.3848 20.5204 14.6676 20.5204V20.5203ZM9.85982 25.4833C9.79783 25.4833 9.73635 25.4672 9.68204 25.4366C9.56593 25.3715 9.49603 25.2488 9.49964 25.1163L9.65324 20.7561C9.66159 20.5253 9.79309 20.3124 9.99644 20.2006C10.0951 20.1464 10.2067 20.1178 10.3192 20.1178C10.4363 20.1178 10.5517 20.1487 10.6529 20.2071L13.7267 21.9406C13.9308 22.0543 14.0609 22.2695 14.0663 22.5021C14.0717 22.7346 13.9517 22.9554 13.7531 23.0785L10.0528 25.4271C9.99506 25.4639 9.92831 25.4834 9.85981 25.4834L9.85982 25.4833ZM24.8334 25.5003H14.8331C14.4655 25.5003 14.1665 25.2033 14.1665 24.8382C14.1665 24.4734 14.4655 24.1766 14.8331 24.1766H24.8334C25.201 24.1766 25.5 24.4734 25.5 24.8382C25.5 25.2033 25.201 25.5003 24.8334 25.5003Z" fill="#5F87E7"/>
</svg>
